<?xml version="1.0" encoding="UTF-8"?>
<svg version="1.1" xmlns="http://www.w3.org/2000/svg" width="16" height="16">
<path d="M0 0 C1.27875 0.00257812 2.5575 0.00515625 3.875 0.0078125 C5.15375 0.00523438 6.4325 0.00265625 7.75 0 C10.875 0.1328125 10.875 0.1328125 11.875 1.1328125 C11.97323937 2.79710301 12.00473631 4.46563181 12 6.1328125 C12.00386719 7.4940625 12.00386719 7.4940625 12.0078125 8.8828125 C11.875 11.1328125 11.875 11.1328125 10.875 12.1328125 C8.54339945 12.23190552 6.20870058 12.26251754 3.875 12.2578125 C2.59625 12.26039062 1.3175 12.26296875 0 12.265625 C-3.125 12.1328125 -3.125 12.1328125 -4.125 11.1328125 C-4.22323937 9.46852199 -4.25473631 7.79999319 -4.25 6.1328125 C-4.25257813 5.2253125 -4.25515625 4.3178125 -4.2578125 3.3828125 C-4.04965623 -0.1435996 -3.61908446 0.15381109 0 0 Z " fill="#E3BFAF" transform="translate(4.125,1.8671875)"/>
<path d="M0 0 C1.27875 0.00257812 2.5575 0.00515625 3.875 0.0078125 C5.15375 0.00523438 6.4325 0.00265625 7.75 0 C10.875 0.1328125 10.875 0.1328125 11.875 1.1328125 C11.97323937 2.79710301 12.00473631 4.46563181 12 6.1328125 C12.00386719 7.4940625 12.00386719 7.4940625 12.0078125 8.8828125 C11.875 11.1328125 11.875 11.1328125 10.875 12.1328125 C8.54339945 12.23190552 6.20870058 12.26251754 3.875 12.2578125 C2.59625 12.26039062 1.3175 12.26296875 0 12.265625 C-3.125 12.1328125 -3.125 12.1328125 -4.125 11.1328125 C-4.22323937 9.46852199 -4.25473631 7.79999319 -4.25 6.1328125 C-4.25257813 5.2253125 -4.25515625 4.3178125 -4.2578125 3.3828125 C-4.04965623 -0.1435996 -3.61908446 0.15381109 0 0 Z M-2.125 2.1328125 C-2.125 4.7728125 -2.125 7.4128125 -2.125 10.1328125 C1.835 10.1328125 5.795 10.1328125 9.875 10.1328125 C9.875 7.4928125 9.875 4.8528125 9.875 2.1328125 C5.915 2.1328125 1.955 2.1328125 -2.125 2.1328125 Z " fill="#0E1B41" transform="translate(4.125,1.8671875)"/>
<path d="M0 0 C2.31 0 4.62 0 7 0 C7 0.66 7 1.32 7 2 C6.34 2 5.68 2 5 2 C5.33 3.98 5.66 5.96 6 8 C4.02 8 2.04 8 0 8 C0 5.36 0 2.72 0 0 Z " fill="#C1DAE0" transform="translate(2,4)"/>
</svg>
